# xmcd
#
# Track frame offsets:
#	150
#	14736
#	25595
#	36757
#	45973
#	54200
#	77261
#	87958
#	100080
#	111040
#	119630
#	134824
#	151383
#
# Disc length: 2234 seconds
#
# Revision: 0
# Processed by: cddbd v1.5.2PL0 Copyright (c) Steve Scherf et al.
# Submitted via: audiograbber 1.83.01
#
DISCID=9908b80d
DTITLE=Legendary Stardust Cowboy - The Legendary Cowboy Rides Again
DYEAR=2004
DGENRE=Country
TTITLE0=Relaxation
TTITLE1=Ride A Tractor
TTITLE2=Someone Took The Yellow From My Egg
TTITLE3=Pahrump
TTITLE4=World's Worst Titles
TTITLE5=Red Telephone
TTITLE6=Idiots Running Sideways
TTITLE7=Arise !
TTITLE8=Red Eyes
TTITLE9=Saturn
TTITLE10=Rubber Hits The Road
TTITLE11=I Love My Bed
TTITLE12=New Jersey Turnpike
EXTD=
EXTT0=
EXTT1=
EXTT2=
EXTT3=
EXTT4=
EXTT5=
EXTT6=
EXTT7=
EXTT8=
EXTT9=
EXTT10=
EXTT11=
EXTT12=
PLAYORDER=
